<svg width="713" height="713" viewBox="0 0 713 713" fill="none" xmlns="http://www.w3.org/2000/svg">
<g clip-path="url(#clip0_7_111)">
<rect width="713" height="713" fill="#FF5912"/>
<path fill-rule="evenodd" clip-rule="evenodd" d="M167.402 393.929L396.797 576.5L688.5 703L461.243 513.309L167.402 393.929Z" fill="#FFFDF5"/>
<path fill-rule="evenodd" clip-rule="evenodd" d="M276.832 107.836L304.5 35.5L335.5 107L267.846 351.881L167.402 393.929L203.901 298.506L276.832 107.836Z" fill="#FFFDF5"/>
<path fill-rule="evenodd" clip-rule="evenodd" d="M304.5 35.5L276.832 107.836L103.5 110.307L304.5 35.5Z" fill="#FFFDF5"/>
<path fill-rule="evenodd" clip-rule="evenodd" d="M203.901 298.506L167.402 393.929L72 318L17 142.5L203.901 298.506Z" fill="#FFFDF5"/>
<path fill-rule="evenodd" clip-rule="evenodd" d="M167.402 393.929L396.797 576.5L304.5 667L110 544L167.402 393.929Z" fill="#FFFDF5"/>
<path fill-rule="evenodd" clip-rule="evenodd" d="M461.243 513.309L167.402 393.929L267.846 351.881L430 284L449.143 424.5L461.243 513.309Z" fill="#FFFDF5"/>
<path fill-rule="evenodd" clip-rule="evenodd" d="M461.243 513.309L449.143 424.5L778.5 202.5L461.243 513.309Z" fill="#FFFDF5"/>
<path d="M167.402 393.929L396.797 576.5M167.402 393.929L461.243 513.309M167.402 393.929L267.846 351.881M167.402 393.929L203.901 298.506M167.402 393.929L72 318L17 142.5M167.402 393.929L110 544L304.5 667L396.797 576.5M396.797 576.5L688.5 703L461.243 513.309M461.243 513.309L449.143 424.5M461.243 513.309L778.5 202.5L449.143 424.5M276.832 107.836L304.5 35.5M276.832 107.836L203.901 298.506M276.832 107.836L103.5 110.307M304.5 35.5L335.5 107L267.846 351.881M304.5 35.5L103.5 110.307M267.846 351.881L430 284L449.143 424.5M203.901 298.506L17 142.5M103.5 110.307L17 142.5" stroke="#FF5912" stroke-width="20" stroke-miterlimit="16"/>
</g>
<defs>
<clipPath id="clip0_7_111">
<rect width="713" height="713" fill="white"/>
</clipPath>
</defs>
</svg>
