<svg width="192" height="192" viewBox="0 0 192 192" fill="none" xmlns="http://www.w3.org/2000/svg">
<path d="M132.342 180H34.1102C30.9414 180 28.6309 179.27 27.1785 177.81C25.7262 176.351 25 174.028 25 170.843V144.17C25 141.25 25.3961 138.795 26.1883 136.804C27.1125 134.681 28.4988 132.624 30.3473 130.634L75.8982 75.0966H37.675C34.5063 75.0966 32.1957 74.3667 30.7434 72.9069C29.291 71.4472 28.5649 69.1249 28.5649 65.9399V41.8539C28.5649 40.1288 28.7629 38.669 29.159 37.4747C29.6871 36.2803 30.4133 35.285 31.3375 34.4888L56.8856 12.7915C57.5458 12.2607 58.404 11.8626 59.4603 11.5972C60.6485 11.1991 61.9028 11 63.2232 11H154.325C157.494 11 159.804 11.7299 161.257 13.1896C162.709 14.6494 163.435 16.9717 163.435 20.1567V49.8163C163.435 52.7358 162.973 55.2572 162.049 57.3804C161.257 59.5037 159.936 61.5607 158.088 63.5512L114.715 116.302H157.89C161.059 116.302 163.369 117.031 164.821 118.491C166.274 119.951 167 122.273 167 125.458V149.146C167 150.871 166.736 152.331 166.208 153.525C165.812 154.72 165.152 155.715 164.227 156.511L138.481 178.009C137.953 178.54 137.095 179.005 135.907 179.403C134.85 179.801 133.662 180 132.342 180ZM157.89 156.312C160.398 156.312 162.181 155.781 163.237 154.72C164.425 153.525 165.02 151.667 165.02 149.146V125.458C165.02 122.937 164.425 121.145 163.237 120.084C162.181 118.889 160.398 118.292 157.89 118.292H110.556L156.503 62.3569C158.22 60.499 159.474 58.6411 160.266 56.7833C161.059 54.7927 161.455 52.4704 161.455 49.8163V20.1567C161.455 17.6353 160.861 15.8437 159.672 14.7821C158.616 13.5877 156.834 12.9906 154.325 12.9906H63.2232C60.7146 12.9906 58.8661 13.5877 57.6778 14.7821C56.6216 15.8437 56.0934 17.6353 56.0934 20.1567V44.2426C56.0934 46.764 56.6216 48.6219 57.6778 49.8163C58.8661 50.8779 60.7146 51.4087 63.2232 51.4087H105.605L57.4798 110.131C55.7634 111.989 54.5091 113.913 53.7169 115.903C52.9247 117.761 52.5286 119.951 52.5286 122.472V149.146C52.5286 151.667 53.0567 153.525 54.113 154.72C55.3013 155.781 57.1497 156.312 59.6583 156.312H157.89ZM137.095 48.0247L79.0669 122.87C78.1427 124.065 77.4165 125.06 76.8884 125.856C76.4923 126.653 76.2943 127.714 76.2943 129.041V131.828C76.2943 133.686 76.6904 134.947 77.4826 135.61C78.4068 136.141 79.397 136.406 80.4533 136.406H147.195V138.397H80.4533C78.3408 138.397 76.7564 137.866 75.7001 136.804C74.7759 135.743 74.3138 134.084 74.3138 131.828V128.643C74.3138 127.183 74.6439 125.923 75.304 124.861C75.9642 123.667 76.7564 122.472 77.6806 121.278L135.709 46.4323C136.633 45.2379 137.293 44.2426 137.689 43.4464C138.217 42.6502 138.481 41.5885 138.481 40.2615V37.4747C138.481 35.6168 138.019 34.4225 137.095 33.8916C136.303 33.2281 135.378 32.8964 134.322 32.8964H73.9177V30.9058H134.322C136.435 30.9058 137.953 31.4366 138.877 32.4982C139.934 33.5599 140.462 35.2187 140.462 37.4747V40.6596C140.462 42.1194 140.132 43.4464 139.471 44.6407C138.811 45.7024 138.019 46.8304 137.095 48.0247Z" fill="#FB923C"/>
</svg>
